<svg version="1.1" id="Layer_1" role="img" aria-labelledby="title desc" xmlns="http://www.w3.org/2000/svg" xmlns:xlink="http://www.w3.org/1999/xlink" x="0px" y="0px"
	 width="100%" viewBox="245 235 540 540" enable-background="new 245 235 540 540" xml:space="preserve">
<title id="title">ものログ ロゴマーク</title>
<desc id="desc">開いたメモノートと小さな星を組み合わせたロゴマーク</desc>
<path fill="#10b981" opacity="1.000000" stroke="none" 
	d="
M482.831024,709.184326 
	C446.658325,695.993286 410.838806,682.959717 375.035400,669.882080 
	C349.076752,660.400330 323.164337,650.791687 297.183960,641.370178 
	C279.679901,635.022583 272.352692,622.683594 274.399231,604.229980 
	C276.856201,582.075439 278.582123,559.840576 280.746735,537.652466 
	C283.266083,511.827911 285.945831,486.019043 288.502228,460.198090 
	C290.272827,442.314270 291.929657,424.419220 293.679199,406.533295 
	C295.444000,388.491119 297.079895,370.433594 299.116669,352.421753 
	C300.522125,339.992828 306.128143,333.036560 315.467163,331.089630 
	C320.340240,330.073700 325.093414,330.868256 329.717438,332.459167 
	C379.300385,349.518341 428.764801,366.912933 477.974213,385.025085 
	C484.230042,387.327606 490.467651,389.733551 495.411407,394.488586 
	C496.613495,395.644836 497.972504,396.083893 499.479706,395.131592 
	C509.463043,388.823761 521.112427,388.879303 532.145203,386.892914 
	C560.940979,381.708313 589.831726,377.049042 618.693420,372.233276 
	C643.293152,368.128662 667.887939,363.989746 692.518799,360.079224 
	C705.158875,358.072357 719.239014,368.716370 721.093018,381.949829 
	C724.091370,403.351135 726.594116,424.821869 729.314697,446.262177 
	C731.700500,465.065155 734.147461,483.860535 736.478760,502.670227 
	C739.833496,529.738525 743.098267,556.818054 746.421448,583.890320 
	C747.818909,595.274597 749.458984,606.632751 750.640259,618.038940 
	C751.863892,629.853943 751.218933,641.706360 749.149109,653.354553 
	C747.012756,665.376831 736.757690,673.711426 722.949158,676.076233 
	C704.753784,679.192383 686.589783,682.491699 668.411743,685.709412 
	C626.327209,693.158997 584.244202,700.617371 542.156372,708.048157 
	C531.676453,709.898438 521.139221,711.449951 510.703644,713.518799 
	C500.940063,715.454407 491.844727,714.114380 482.831024,709.184326 
M469.328369,462.712524 
	C472.531158,461.799805 473.009674,460.049652 471.547272,457.074768 
	C467.719788,449.288666 470.513214,442.674774 478.696289,439.588440 
	C489.214478,435.621429 498.420654,441.865326 498.171265,452.937469 
	C497.983856,461.256866 497.698029,469.581360 497.138519,477.882141 
	C496.847809,482.195007 497.878174,484.382141 502.602448,485.450806 
	C510.907532,487.329590 516.258057,492.877167 517.943359,501.402100 
	C518.905151,506.267059 517.884155,510.739410 513.770508,513.969360 
	C511.441467,515.798157 508.822327,515.808777 506.290466,514.284973 
	C503.950989,512.876892 503.506531,510.833221 504.222534,508.245880 
	C505.500885,503.626556 504.409698,499.318237 501.941132,495.346741 
	C493.980255,482.538605 475.811859,480.452728 465.174377,491.091370 
	C458.612915,497.653564 457.324829,507.285675 462.186890,513.817322 
	C463.517883,515.605347 465.095490,517.343323 467.597382,515.981445 
	C470.274353,514.524231 470.079132,512.271790 468.654541,510.013611 
	C466.951263,507.313690 466.482422,504.596161 467.516724,501.462006 
	C470.714630,491.771576 483.465698,488.374878 491.832458,495.063263 
	C494.453888,497.158783 495.786499,499.527130 495.554993,503.198364 
	C494.895020,513.663696 494.720215,524.159302 494.323151,534.641846 
	C494.219818,537.369568 494.468414,539.295776 498.056549,539.772949 
	C507.537964,541.033691 514.314392,548.030212 515.807190,557.479797 
	C516.416321,561.335632 515.242004,564.786987 512.845337,567.712708 
	C510.588623,570.467651 507.496063,571.108765 504.265259,569.664429 
	C500.971741,568.192078 501.108063,565.391418 501.910400,562.412964 
	C502.248566,561.157471 502.561096,559.776245 502.388214,558.520630 
	C500.936951,547.978760 491.186951,539.499451 480.128632,539.035522 
	C468.328857,538.540466 459.131226,545.384521 456.800537,556.599670 
	C455.716156,561.817627 457.047241,566.516663 460.880432,570.323120 
	C461.977020,571.412109 463.413696,572.005920 464.974579,571.059387 
	C466.630707,570.055115 467.098450,568.514832 466.589050,566.744507 
	C466.270203,565.636353 465.505096,564.651611 465.219086,563.539856 
	C463.994537,558.780090 464.219482,554.256897 467.986786,550.569946 
	C472.358459,546.291626 479.709808,545.087891 485.691986,547.745544 
	C490.427979,549.849609 493.625519,552.983765 493.315552,558.792664 
	C492.783508,568.764099 492.668610,578.758423 492.093079,588.726624 
	C491.876129,592.484314 492.672150,594.305603 496.786652,595.251404 
	C505.220032,597.190002 510.814758,602.611145 512.889587,611.230164 
	C514.184021,616.607300 512.354065,622.298706 508.676880,624.724548 
	C506.409973,626.219971 504.069397,626.665649 501.661591,625.107178 
	C499.316071,623.589111 498.285889,621.493713 499.090179,618.690308 
	C499.795959,616.230286 499.831787,613.797791 499.092041,611.311279 
	C496.289520,601.890869 489.843018,596.263489 480.410278,594.613831 
	C470.954224,592.960266 462.947510,596.266235 457.109436,603.994385 
	C452.446655,610.166809 452.706238,620.058167 457.359100,624.848145 
	C458.888123,626.422241 460.592133,627.317261 462.655823,625.884338 
	C464.453308,624.636230 464.718689,622.985657 463.601105,621.097229 
	C460.509399,615.873169 460.770111,610.848511 465.003265,606.438904 
	C469.604279,601.646118 475.305817,600.566162 481.542664,602.602051 
	C488.228363,604.784546 490.498138,608.331360 490.423492,615.061890 
	C490.244324,631.220703 489.337097,647.342529 488.420258,663.469604 
	C487.918274,672.299500 494.656860,678.742798 502.673370,677.327698 
	C525.106812,673.367310 547.526855,669.331177 569.954712,665.339417 
	C618.247437,656.744019 666.541931,648.158875 714.834290,639.561279 
	C716.144287,639.328064 717.430908,638.965454 718.739319,638.721497 
	C733.647949,635.941345 738.320557,630.005615 736.559570,614.798584 
	C733.383606,587.372498 729.926147,559.978455 726.476440,532.584839 
	C722.965515,504.704529 719.296753,476.844116 715.745300,448.968872 
	C713.139221,428.513397 710.822998,408.018341 707.964050,387.598816 
	C706.386841,376.332947 701.092285,372.674011 689.984924,374.455841 
	C661.075562,379.093475 632.178040,383.807953 603.298462,388.627167 
	C576.390320,393.117340 549.506958,397.756805 522.624023,402.396179 
	C518.533752,403.102142 514.259155,403.582611 510.495544,405.174164 
	C500.891724,409.235291 498.802582,417.496857 499.208679,427.023132 
	C499.333771,429.957977 499.881714,431.401642 503.191162,431.961914 
	C511.174530,433.313477 516.825806,437.941986 519.569092,445.694641 
	C521.276306,450.519379 521.120239,455.273743 517.667297,459.362640 
	C515.585693,461.827667 512.849731,463.004425 509.627686,461.533173 
	C506.587921,460.145172 506.070953,457.834991 506.518768,454.545227 
	C508.041779,443.357239 500.281830,433.653198 488.479858,431.496460 
	C477.046173,429.406982 465.241638,436.471558 462.665741,446.945221 
	C460.923309,454.029938 463.159454,459.952820 469.328369,462.712524 
M647.905762,675.215942 
	C658.551880,673.360474 669.204895,671.543884 679.842346,669.639954 
	C694.404053,667.033936 708.982361,664.507019 723.496765,661.656677 
	C730.876770,660.207397 735.234375,655.161560 735.203613,648.705811 
	C731.979797,649.597900 728.889893,650.703125 725.704529,651.293213 
	C707.231934,654.715149 688.743896,658.054504 670.248108,661.348877 
	C636.367126,667.383606 602.558228,673.885559 568.564941,679.206726 
	C542.001770,683.364929 515.999573,692.247437 488.280975,689.878967 
	C488.157654,693.550842 490.353912,696.107666 493.254089,698.246277 
	C497.186554,701.145874 501.688538,701.197144 506.190582,700.425354 
	C523.389954,697.477173 540.572937,694.432495 557.753845,691.377258 
	C587.531555,686.082153 617.303223,680.752380 647.905762,675.215942 
z"/>
<path fill="#fbbf24" opacity="1.000000" stroke="none" 
	d="
M667.188843,293.986969 
	C662.781677,298.332611 658.759705,302.573914 654.351440,306.366394 
	C651.236511,309.046143 650.764282,312.140839 651.444580,315.764496 
	C652.302856,320.335907 653.301147,324.882507 654.080811,329.466736 
	C654.672363,332.945038 655.191406,336.498718 651.611328,338.953888 
	C648.281128,341.237640 645.286743,339.804108 642.263000,338.217438 
	C636.392090,335.136749 630.691284,329.547241 624.467468,329.965057 
	C618.525513,330.363861 612.870422,335.262634 607.123901,338.250153 
	C604.244690,339.747009 601.431519,341.136047 598.218994,339.127197 
	C595.610840,337.496185 594.905457,335.151550 595.415344,332.247437 
	C596.335266,327.008453 596.897400,321.682831 598.195740,316.541595 
	C599.277283,312.258820 598.263062,309.221893 595.030762,306.365265 
	C591.042786,302.840820 587.350037,298.982117 583.531921,295.265625 
	C581.365417,293.156738 580.124573,290.694885 581.038452,287.629517 
	C581.993103,284.427521 584.697571,283.552887 587.595093,283.069336 
	C593.334106,282.111664 599.064758,281.090942 604.823608,280.270447 
	C607.765625,279.851257 609.549683,278.425720 610.762146,275.705902 
	C612.995911,270.695160 615.525330,265.816559 617.913757,260.874329 
	C619.380127,257.840088 621.359497,255.582321 625.107788,255.691711 
	C628.651855,255.795135 630.331177,258.090607 631.695679,260.951263 
	C634.131226,266.057343 636.705994,271.096893 639.161682,276.193573 
	C640.505737,278.983154 642.501892,280.439758 645.720398,280.741394 
	C651.175049,281.252563 656.604553,282.095581 662.018433,282.962616 
	C668.383545,283.982025 670.221924,287.750732 667.188843,293.986969 
z"/>
<path fill="#10b981" opacity="1.000000" stroke="none" 
	d="
M605.337891,560.302612 
	C604.800232,554.659973 606.318115,552.541260 611.429749,551.766968 
	C629.511963,549.027893 647.608826,546.385254 665.695740,543.676941 
	C673.095032,542.569092 680.476990,541.345276 687.878784,540.255615 
	C691.704285,539.692383 694.506958,541.032593 695.229492,545.115417 
	C695.889954,548.846741 693.534180,551.583496 689.294189,552.223206 
	C664.134033,556.019104 638.967163,559.770447 613.814880,563.617493 
	C610.399780,564.139771 607.510742,563.817139 605.337891,560.302612 
z"/>
<path fill="#10b981" opacity="1.000000" stroke="none" 
	d="
M651.905273,485.125610 
	C636.673706,487.351562 621.866638,489.408478 607.106567,491.760040 
	C602.894287,492.431122 600.170654,491.215668 599.017944,487.231903 
	C597.999512,483.712311 600.727234,480.514069 605.243164,479.830536 
	C629.722717,476.125183 654.211548,472.481445 678.699097,468.828918 
	C679.684937,468.681885 680.688782,468.649475 681.685486,468.582733 
	C685.667603,468.316101 688.301025,470.144775 688.575378,474.095306 
	C688.830627,477.770966 686.584595,479.860809 682.890991,480.401154 
	C674.017334,481.699371 665.152100,483.055115 656.284790,484.396576 
	C654.968628,484.595673 653.659851,484.843292 651.905273,485.125610 
z"/>
<path fill="#047857" opacity="1.000000" stroke="none" 
	d="
M550.253540,501.745422 
	C548.086914,499.410095 546.056580,497.419373 544.274475,495.226837 
	C542.099060,492.550415 541.918884,489.637390 544.563843,487.195404 
	C546.999756,484.946442 549.671753,485.264832 552.259521,487.260406 
	C554.207947,488.763031 555.480530,491.121216 558.771606,492.120483 
	C563.166809,485.993530 567.688538,479.696808 572.201050,473.393494 
	C572.976440,472.310394 573.679749,471.174805 574.472839,470.105408 
	C576.727600,467.064880 579.659485,466.398743 582.751770,468.461029 
	C585.715637,470.437592 586.075256,473.482605 584.272827,476.386871 
	C581.641418,480.626892 578.700500,484.676758 575.845276,488.775452 
	C572.608826,493.421509 569.283569,498.006012 566.064697,502.664032 
	C561.373535,509.452393 558.479004,509.792114 552.609253,504.130432 
	C551.890259,503.436890 551.202271,502.711304 550.253540,501.745422 
z"/>
<path fill="#047857" opacity="1.000000" stroke="none" 
	d="
M567.109070,558.079102 
	C571.268738,552.241333 575.245667,546.701416 579.172546,541.126282 
	C581.519165,537.794678 584.542542,536.283997 588.055176,538.882629 
	C591.510254,541.438721 591.089600,544.744629 588.689758,548.076172 
	C582.468689,556.712341 576.368408,565.435547 570.164734,574.084412 
	C566.689148,578.929932 563.232483,579.393127 558.990417,575.369629 
	C555.617737,572.170715 552.452026,568.737183 549.373657,565.249756 
	C547.097900,562.671570 546.852356,559.652344 549.451599,557.220703 
	C552.019409,554.818481 554.866516,555.278748 557.514343,557.538025 
	C559.376404,559.126770 560.645508,561.443237 563.117554,562.293396 
	C565.032349,561.522339 565.706177,559.688477 567.109070,558.079102 
z"/>
</svg>
